<svg width="331" height="444" viewBox="0 0 331 444" fill="none" xmlns="http://www.w3.org/2000/svg">
<path d="M152.23 149.67C152.93 149.45 153.3 148.83 153.78 148.36C178.12 124.02 202.34 99.56 226.83 75.36C243.93 58.46 260.83 41.36 277.93 24.45C281.833 20.5671 286.73 17.8332 292.083 16.5477C297.437 15.2623 303.041 15.4749 308.282 17.1623C313.523 18.8497 318.198 21.9467 321.796 26.1142C325.394 30.2818 327.775 35.3591 328.68 40.79C329.502 45.427 329.17 50.1949 327.714 54.6734C326.258 59.1518 323.722 63.2031 320.33 66.47C303.217 83.7233 286.047 100.917 268.82 118.05C250.22 136.63 231.607 155.203 212.98 173.77C159.647 227.103 106.34 280.437 53.06 333.77C46.82 340.02 39.3899 343.54 30.4899 343.42C23.4229 343.399 16.5976 340.844 11.2529 336.221C5.9082 331.597 2.39821 325.21 1.35994 318.22C0.656075 313.907 0.931457 309.49 2.16567 305.298C3.39988 301.105 5.56131 297.244 8.48995 294C13.6599 288.06 19.4899 282.74 25.0199 277.16C42.7533 259.373 60.5133 241.62 78.2999 223.9C79.4599 222.74 79.6399 222.12 78.3599 220.9C62.6299 205.27 46.88 189.66 31.31 173.9C23.68 166.16 15.94 158.54 8.37996 150.74C-5.22004 136.74 -1.72005 113.8 15.18 104.03C26.28 97.6 40.91 99.39 49.89 107.84C58.18 115.63 66.1599 123.73 74.0799 131.84C80.0799 138.02 86.13 144.14 92.31 150.14V209.77C93.12 209 93.61 208.54 94.09 208.07C112.89 189.263 131.69 170.453 150.49 151.64C151.1 151 151.65 150.32 152.23 149.67Z" fill="#74E3C1"/>
<path d="M302.21 430.86C294.46 431.117 286.9 428.43 281.05 423.34C279.29 421.85 277.63 420.24 276.05 418.61C240.45 383.01 204.85 347.417 169.25 311.83C168.689 311.311 168.249 310.677 167.958 309.97C167.668 309.264 167.536 308.503 167.57 307.74C167.623 286.307 167.623 264.88 167.57 243.46C167.528 242.755 167.65 242.049 167.926 241.399C168.202 240.749 168.624 240.171 169.16 239.71C171.05 237.99 172.83 236.14 174.6 234.29C175.28 233.57 175.8 233.54 176.41 234.29C176.57 234.479 176.744 234.656 176.93 234.82L321 379C325.659 383.576 328.819 389.459 330.06 395.87C331.292 402.674 330.109 409.694 326.717 415.718C323.325 421.743 317.936 426.395 311.48 428.87C308.52 430.036 305.388 430.708 302.21 430.86V430.86Z" fill="#74E3C1"/>
<path d="M152.23 149.67C151.65 150.32 151.1 150.99 150.49 151.6C131.69 170.42 112.89 189.23 94.09 208.03C93.61 208.5 93.09 208.96 92.31 209.73V150.1C92.31 149.23 92.36 148.35 92.36 147.48C92.36 121.55 92.15 95.62 92.42 69.7C92.55 56.21 92.42 42.7 92.62 29.24C92.83 14.01 106.05 0.740017 121.29 0.440017C136.35 0.150017 148.47 9.61001 151.66 24.15C152.138 26.5393 152.353 28.9739 152.3 31.41C152.273 70.83 152.25 110.25 152.23 149.67Z" fill="#4AD5AB"/>
<path d="M152.22 256.78V258.78C152.22 309.86 152.203 360.943 152.17 412.03C152.17 425.4 146.17 435.53 133.81 441.03C118.4 447.9 98.35 440.2 93.4 420.59C92.7184 417.798 92.3825 414.934 92.4 412.06C92.4 380.78 92.4 349.493 92.4 318.2C92.3527 317.71 92.4123 317.216 92.5746 316.752C92.7369 316.287 92.998 315.864 93.34 315.51C112.673 296.177 132.007 276.843 151.34 257.51C151.49 257.36 151.69 257.21 152.22 256.78Z" fill="#4AD5AB"/>
</svg>
