<svg width="459" height="488" viewBox="0 0 459 488" fill="none" xmlns="http://www.w3.org/2000/svg">
<path d="M217.26 114.16C218.13 114.16 218.45 113.42 218.94 112.94L273.74 58.1399C286.927 44.9599 300.123 31.7933 313.33 18.6399C315.484 16.4833 318.046 14.7778 320.867 13.6234C323.687 12.469 326.71 11.8888 329.758 11.9167C332.806 11.9447 335.817 12.5802 338.617 13.7861C341.416 14.992 343.946 16.7442 346.06 18.9399C354.37 27.5899 354.54 41.6299 346.15 50.1799C333.59 62.9999 321 75.7599 308.21 88.2699C300.92 95.3799 293.74 102.61 286.54 109.81C238.3 158.043 190.07 206.287 141.85 254.54C136.76 259.64 130.75 262.35 123.51 262.09C119.099 261.85 114.852 260.33 111.29 257.717C107.728 255.103 105.004 251.509 103.45 247.374C101.897 243.238 101.581 238.739 102.542 234.427C103.502 230.114 105.698 226.175 108.86 223.09C126.04 205.85 143.243 188.633 160.47 171.44C162.12 169.8 162.12 169.79 160.47 168.15C148.6 156.28 136.64 144.5 124.9 132.51C119.45 126.94 113.8 121.58 108.35 116.02C98.71 106.17 98.78 91.6999 108.59 82.3499C117.29 74.0599 131.49 74.4199 140.24 83.1699C150.2 93.1699 160.147 103.147 170.08 113.1C170.54 113.57 170.86 114.38 171.77 114.2C171.77 114.68 171.77 115.2 171.77 115.64C171.77 129.64 171.77 143.66 171.77 157.7C171.77 158.26 171.44 159.07 172.03 159.35C172.62 159.63 173.03 158.86 173.41 158.47C187.61 144.29 201.803 130.1 215.99 115.9C216.59 115.472 217.036 114.862 217.26 114.16V114.16Z" fill="#74E3C1"/>
<path d="M229 210.39C229 202.24 229 194.09 229 185.93C228.958 185.367 229.05 184.802 229.267 184.281C229.484 183.76 229.821 183.297 230.25 182.93C231.594 181.733 232.866 180.457 234.06 179.11C234.89 178.18 235.4 178.36 236.19 179.16C241.19 184.23 246.26 189.26 251.31 194.31C282.75 225.763 314.19 257.213 345.63 288.66C350.77 293.8 353.63 299.86 353.5 307.27C353.28 317.83 344.5 327.37 334.02 328.67C325.88 329.67 319.2 326.83 313.57 321.21C290.237 297.93 266.927 274.623 243.64 251.29C239.2 246.84 234.77 242.36 230.27 237.96C229.84 237.56 229.504 237.071 229.284 236.526C229.065 235.982 228.968 235.396 229 234.81C229 226.69 229 218.54 229 210.39Z" fill="#74E3C1"/>
<path d="M217.26 114.16C217.05 114.85 216.626 115.456 216.05 115.89C201.863 130.077 187.67 144.267 173.47 158.46C173.08 158.85 172.73 159.65 172.09 159.34C171.45 159.03 171.83 158.25 171.83 157.69C171.83 143.69 171.83 129.67 171.83 115.63C171.83 115.15 171.83 114.63 171.83 114.19C171.83 83.3833 171.86 52.57 171.92 21.75C171.92 11.95 180.68 2.22995 190.57 0.609947C196.445 -0.47463 202.511 0.797514 207.455 4.15115C212.4 7.50478 215.825 12.6702 216.99 18.53C217.354 20.1718 217.538 21.8483 217.54 23.53C217.433 53.7366 217.34 83.9466 217.26 114.16Z" fill="#3FD3A6"/>
<path d="M217.17 196.4C217.434 197.004 217.504 197.675 217.37 198.32C217.37 236.68 217.37 275.037 217.37 313.39C217.37 321.12 215.16 327.9 209.11 333.07C206.191 335.58 202.679 337.302 198.907 338.071C195.136 338.841 191.23 338.632 187.561 337.465C183.893 336.299 180.584 334.213 177.949 331.406C175.315 328.599 173.442 325.165 172.51 321.43C171.958 319.159 171.693 316.827 171.72 314.49C171.72 290.703 171.72 266.91 171.72 243.11C171.692 242.611 171.773 242.111 171.958 241.647C172.143 241.182 172.427 240.764 172.79 240.42C187.177 226.08 201.547 211.723 215.9 197.35C216.27 197 216.53 196.46 217.17 196.4Z" fill="#3FD3A6"/>
<path d="M118.52 468.69C108.69 468.69 98.8601 468.69 89.0301 468.69C88.5632 468.633 88.0915 468.748 87.7044 469.016C87.3173 469.283 87.0417 469.683 86.9301 470.14C85.7801 473.09 84.5801 476.03 83.3001 478.93C82.5077 480.809 81.1206 482.375 79.3517 483.389C77.5828 484.403 75.53 484.808 73.5085 484.542C71.487 484.277 69.6087 483.355 68.1619 481.918C66.7152 480.481 65.78 478.61 65.5001 476.59C65.2627 474.917 65.5054 473.211 66.2001 471.67C75.2535 449.757 84.3101 427.867 93.3701 406C93.6883 405.092 94.2041 404.265 94.8801 403.58C95.2901 405.13 94.2001 406.58 94.7201 408.22C96.2401 413.22 98.5201 417.85 100.26 422.72C101.26 425.45 102.82 427.97 103.14 430.93C103.07 431.16 103.01 431.39 102.92 431.61C100.63 437.18 98.3401 442.74 96.0901 448.32C95.9001 448.79 95.0101 449.74 96.5401 449.74L110.87 449.63C113.78 449.63 116.69 449.63 119.62 449.92C122.114 450.066 124.449 451.197 126.109 453.064C127.77 454.931 128.621 457.381 128.475 459.875C128.329 462.369 127.198 464.704 125.332 466.364C123.465 468.025 121.014 468.876 118.52 468.73V468.69Z" fill="#3FD3A6"/>
<path d="M198.8 453.19C188.97 453.19 179.14 453.19 169.31 453.09C168.03 453.09 168.23 453.89 168.23 454.65C168.23 461.42 168.23 468.2 168.23 474.97C168.255 477.029 167.56 479.031 166.265 480.633C164.971 482.234 163.158 483.333 161.14 483.74C155.53 484.85 150.71 480.99 150.34 475.09C150.34 474.74 150.34 474.38 150.34 474.02C150.34 452.547 150.34 431.08 150.34 409.62C150.34 404.7 152.96 401.02 157.12 400C158.447 399.667 159.833 399.644 161.171 399.932C162.509 400.22 163.762 400.812 164.835 401.661C165.908 402.511 166.771 403.595 167.358 404.831C167.945 406.068 168.24 407.422 168.22 408.79C168.293 417.49 168.293 426.183 168.22 434.87C168.22 436.63 168.67 437.04 170.4 437.03C179.87 436.92 189.34 436.96 198.81 436.95L198.8 453.19Z" fill="#3FD3A6"/>
<path d="M18.61 430.22L40.2401 408.63C42.0201 406.85 43.7601 405.03 45.5901 403.3C46.4262 402.461 47.4197 401.795 48.5137 401.341C49.6077 400.887 50.7805 400.653 51.9651 400.653C53.1496 400.653 54.3225 400.887 55.4164 401.341C56.5104 401.795 57.5039 402.461 58.3401 403.3C59.1757 404.14 59.8338 405.14 60.2755 406.239C60.7171 407.339 60.9331 408.516 60.9107 409.701C60.8883 410.886 60.628 412.054 60.1451 413.136C59.6623 414.218 58.9668 415.192 58.1001 416C49.4334 424.78 40.7201 433.53 31.9601 442.25C30.9601 443.25 30.8101 443.78 31.9601 444.87C39.7301 452.53 47.4201 460.27 55.1101 468.01C58.4201 471.34 59.2701 475.65 57.3701 479.13C54.4901 484.38 47.8001 485.72 43.4601 481.55C35.0801 473.55 26.9201 465.22 18.6601 457.04C16.4401 454.31 13.5101 452.29 11.2601 449.58C9.68565 447.872 8.85299 445.61 8.94486 443.289C9.03672 440.968 10.0456 438.778 11.7501 437.2C14.0001 434.89 16.31 432.55 18.61 430.22Z" fill="#3FD3A6"/>
<path d="M198.8 453.19V437C198.8 427.53 198.8 418.06 198.8 408.59C198.781 407.445 198.989 406.308 199.41 405.244C199.831 404.179 200.458 403.208 201.255 402.386C202.052 401.564 203.003 400.908 204.054 400.454C205.105 399.999 206.235 399.757 207.38 399.74C209.591 399.668 211.749 400.423 213.432 401.859C215.115 403.294 216.202 405.306 216.48 407.5C216.643 408.683 216.727 409.876 216.73 411.07C216.73 431.93 216.73 452.787 216.73 473.64C216.73 477.38 215.73 480.64 212.31 482.64C210.998 483.498 209.474 483.977 207.907 484.023C206.339 484.068 204.79 483.68 203.43 482.9C202.04 482.225 200.87 481.169 200.056 479.856C199.242 478.543 198.816 477.025 198.83 475.48C198.73 468.05 198.79 460.62 198.8 453.19Z" fill="#74E3C1"/>
<path d="M103.14 430.89C102.82 427.89 101.23 425.41 100.26 422.68C98.5201 417.81 96.2601 413.15 94.7201 408.18C94.2001 406.51 95.2901 405.09 94.8801 403.54C96.0601 401.9 97.0001 400.11 98.8101 398.97C103.62 395.97 109.65 397.35 112.1 402.51C114.35 407.26 116.18 412.21 118.1 417.1C125.353 435.267 132.59 453.443 139.81 471.63C140.624 473.514 140.819 475.607 140.368 477.608C139.917 479.61 138.843 481.417 137.3 482.77C135.773 483.995 133.907 484.72 131.953 484.849C130 484.978 128.055 484.503 126.38 483.49C124.672 482.453 123.361 480.871 122.66 479C121.25 475.57 119.88 472.13 118.49 468.69C120.984 468.836 123.435 467.985 125.302 466.324C127.168 464.663 128.299 462.329 128.445 459.835C128.591 457.341 127.74 454.89 126.079 453.023C124.419 451.157 122.084 450.026 119.59 449.88C116.66 449.61 113.75 449.64 110.84 449.59C108.54 443.723 106.243 437.85 103.95 431.97C103.81 431.54 103.7 431 103.14 430.89Z" fill="#74E3C1"/>
<path d="M286.87 400.38C289.2 401.18 291.45 402.12 292.93 404.27C294.126 405.829 294.762 407.746 294.735 409.711C294.708 411.676 294.019 413.574 292.78 415.1C287.29 422.1 281.7 429.1 276.14 436.04C270.58 442.98 265.14 449.89 259.58 456.8C257.82 459 256.03 461.16 254.26 463.35C253.92 463.76 253.45 464.09 253.45 464.7C245.32 465.27 237.04 463.29 229.05 466.13C231.48 462.43 234.44 459.13 237.18 455.69C246.98 443.397 256.81 431.133 266.67 418.9C266.929 418.649 267.082 418.31 267.1 417.95C269.85 415.37 271.86 412.17 274.29 409.32C276.03 407.32 277.57 405.07 279.35 403.07C281.33 400.85 284.14 400.66 286.87 400.38Z" fill="#74E3C1"/>
<path d="M427.19 470.43C425.19 475.49 420.98 478.03 416.43 476.87C415.124 476.519 413.913 475.883 412.884 475.006C411.854 474.129 411.033 473.034 410.48 471.8C405.78 462.593 401.063 453.393 396.33 444.2C396.12 443.78 396.02 443.28 395.56 443.03C395.34 442.48 395.15 441.92 394.89 441.39C390.08 431.88 385.29 422.39 380.43 412.86C379.745 411.562 379.392 410.115 379.403 408.648C379.413 407.18 379.787 405.738 380.49 404.45C381.24 402.88 382.85 402.12 383.73 400.71C388.51 398.6 393.61 400.57 396.18 405.57C400.3 413.57 404.407 421.613 408.5 429.7C411.833 436.247 415.167 442.787 418.5 449.32C420.39 453.04 422.26 456.76 424.16 460.47C425.82 463.61 427.7 466.66 427.19 470.43Z" fill="#3FD3A6"/>
<path d="M322.78 453.21C322.78 455.21 322.78 457.16 322.83 459.13C322.83 464.68 325.23 467.73 330.66 469.13C334.213 470.112 338.007 469.682 341.25 467.93C342.687 467.229 343.892 466.129 344.722 464.762C345.552 463.395 345.971 461.818 345.93 460.22C345.93 457.89 345.93 455.56 345.98 453.22H364.4C364.26 457.22 364.77 461.27 364.04 465.22C362.28 474.76 356.52 481.11 347.64 484.51C335.77 489.04 324.34 488.05 313.94 480.51C307.61 475.9 304.52 469.36 304.26 461.51C304.17 458.76 304.26 456.01 304.26 453.25L322.78 453.21Z" fill="#3FD3A6"/>
<path d="M18.6101 430.22C16.3101 432.55 14.0101 434.89 11.7001 437.22C9.99565 438.798 8.98678 440.988 8.89491 443.309C8.80305 445.63 9.63568 447.892 11.2101 449.6C13.4601 452.31 16.3901 454.33 18.6101 457.06C17.9401 457.54 18.2201 458.26 18.2201 458.88C18.2201 464.21 18.2201 469.54 18.2201 474.88C18.2678 476.576 17.8203 478.249 16.9323 479.695C16.0443 481.14 14.7543 482.296 13.2201 483.02C11.894 483.693 10.4205 484.023 8.93419 483.98C7.44784 483.937 5.99579 483.523 4.71041 482.776C3.42502 482.028 2.34717 480.971 1.57509 479.7C0.803014 478.429 0.361281 476.985 0.290118 475.5C0.290118 475.14 0.290118 474.78 0.290118 474.42C0.290118 452.68 0.290118 430.937 0.290118 409.19C0.216307 407.291 0.734926 405.416 1.77413 403.825C2.81333 402.234 4.32164 401.006 6.09011 400.31C7.45672 399.803 8.92601 399.636 10.3717 399.822C11.8173 400.008 13.196 400.543 14.3893 401.38C15.5826 402.218 16.5546 403.332 17.2219 404.628C17.8892 405.924 18.2318 407.362 18.2201 408.82C18.3001 415.34 18.2201 421.87 18.2201 428.4C18.2501 429 18.0001 429.72 18.6101 430.22Z" fill="#74E3C1"/>
<path d="M229.05 466.13C237.05 463.29 245.32 465.27 253.45 464.7C263.27 464.7 273.09 464.74 282.91 464.82C287.75 464.82 291.6 467.51 292.65 471.51C293.02 472.875 293.066 474.308 292.784 475.693C292.501 477.079 291.899 478.38 291.024 479.491C290.15 480.603 289.028 481.495 287.747 482.095C286.467 482.696 285.064 482.988 283.65 482.95C275.51 483.03 267.36 482.95 259.21 482.95C251.21 482.95 243.28 482.95 235.32 482.95C231.32 482.95 228.17 481.44 226.32 477.81C224.47 474.18 225.32 470.72 227.73 467.59C228.18 467.1 228.62 466.62 229.05 466.13Z" fill="#3FD3A6"/>
<path d="M427.19 470.43C427.7 466.66 425.82 463.61 424.19 460.43C422.29 456.72 420.42 453 418.53 449.28C419.53 447.52 420.53 445.78 421.53 443.98C428.35 430.893 435.16 417.793 441.96 404.68C442.827 402.99 444.205 401.618 445.899 400.76C447.593 399.901 449.515 399.6 451.39 399.9C453.08 400.168 454.653 400.928 455.913 402.086C457.172 403.244 458.062 404.748 458.47 406.41C457.79 408.09 458.59 409.97 457.71 411.65C455.81 415.31 453.95 419 452.1 422.65C448.53 429.8 444.49 436.72 441.31 444.07C440.543 444.898 439.942 445.865 439.54 446.92C435.7 454.28 431.9 461.65 428.08 469.02C427.81 469.57 427.69 470.13 427.19 470.43Z" fill="#74E3C1"/>
<path d="M383.73 400.71C382.85 402.12 381.24 402.88 380.49 404.45C379.787 405.738 379.413 407.18 379.402 408.647C379.392 410.115 379.745 411.562 380.43 412.86C385.29 422.35 390.08 431.86 394.89 441.39C395.15 441.92 395.34 442.48 395.56 443.03C395.56 453.463 395.54 463.897 395.5 474.33C395.5 479.45 391.89 483.48 387.21 483.71C386.025 483.777 384.839 483.601 383.725 483.193C382.61 482.785 381.591 482.155 380.728 481.339C379.866 480.524 379.179 479.541 378.71 478.451C378.241 477.361 377.999 476.187 378 475C377.92 462.89 378 450.78 378 438.67C378 428.9 378.06 419.12 378 409.35C378 405.86 380 401.64 383.73 400.71Z" fill="#74E3C1"/>
<path d="M441.28 444.16C444.46 436.81 448.5 429.89 452.07 422.74C453.92 419.04 455.78 415.35 457.68 411.74C458.56 410.06 457.76 408.18 458.44 406.5C458.718 407.475 458.85 408.486 458.83 409.5C458.83 431.06 458.83 452.62 458.83 474.18C458.83 479.85 454.83 483.98 449.66 483.72C444.73 483.48 441.43 479.64 441.41 474.02C441.41 465.22 441.41 456.41 441.41 447.61C441.36 446.43 441.31 445.3 441.28 444.16Z" fill="#3FD3A6"/>
<path d="M322.78 453.21H304.27C304.27 452.86 304.17 452.5 304.16 452.14C304.16 437.76 304.16 423.38 304.16 409C304.133 406.791 304.91 404.647 306.347 402.969C307.784 401.291 309.783 400.193 311.97 399.88C313.212 399.707 314.476 399.785 315.687 400.109C316.899 400.434 318.032 400.999 319.021 401.77C320.01 402.542 320.833 403.504 321.443 404.6C322.053 405.696 322.436 406.903 322.57 408.15C322.91 411.62 322.87 415.08 322.87 418.54C322.87 429.393 322.87 440.24 322.87 451.08C322.9 451.78 322.82 452.49 322.78 453.21Z" fill="#74E3C1"/>
<path d="M364.4 453.16H345.98C345.98 438.61 345.9 424.06 345.98 409.5C346.017 407.184 346.923 404.968 348.52 403.29C350.117 401.612 352.286 400.597 354.597 400.446C356.908 400.295 359.191 401.019 360.992 402.474C362.794 403.929 363.982 406.009 364.32 408.3C364.467 409.241 364.563 410.189 364.61 411.14C364.61 424.56 364.61 437.977 364.61 451.39C364.61 452 364.78 452.62 364.4 453.16Z" fill="#74E3C1"/>
<path d="M286.87 400.38C284.14 400.66 281.33 400.85 279.35 403.07C277.57 405.07 276.03 407.28 274.29 409.32C271.86 412.17 269.85 415.32 267.1 417.95C257.87 417.95 248.64 417.95 239.41 417.95C232.28 417.95 227.93 410.84 231.18 404.66C231.854 403.237 232.921 402.036 234.255 401.199C235.589 400.363 237.135 399.926 238.71 399.94C253.88 399.94 269.05 399.94 284.21 399.94C285.107 400.013 285.997 400.16 286.87 400.38V400.38Z" fill="#3FD3A6"/>
</svg>
