<?xml version="1.0" standalone="no"?>
<!DOCTYPE svg PUBLIC "-//W3C//DTD SVG 20010904//EN"
 "http://www.w3.org/TR/2001/REC-SVG-20010904/DTD/svg10.dtd">
<svg version="1.0" xmlns="http://www.w3.org/2000/svg"
 width="888.000000pt" height="888.000000pt" viewBox="0 0 888.000000 888.000000"
 preserveAspectRatio="xMidYMid meet">
<metadata>
Created by potrace 1.11, written by Peter Selinger 2001-2013
</metadata>
<g transform="translate(0.000000,888.000000) scale(0.100000,-0.100000)"
fill="#000000" stroke="none">
<path d="M3548 8875 c-2 -2 -26 -6 -53 -10 -55 -6 -80 -12 -110 -25 -11 -5
-36 -16 -55 -24 -59 -26 -136 -81 -183 -131 -40 -42 -107 -141 -107 -158 0 -8
-7 -20 -15 -27 -9 -7 -13 -15 -11 -17 3 -3 0 -17 -6 -32 -27 -71 -28 -105 -31
-1448 -2 -1100 -2 -1121 -21 -1105 -10 9 -109 109 -220 220 -594 601 -654 657
-751 701 -94 43 -137 52 -240 55 -120 3 -232 -26 -328 -85 -57 -35 -187 -164
-187 -186 0 -7 -4 -13 -9 -13 -12 0 -59 -114 -76 -185 -17 -73 -13 -230 9
-296 18 -57 49 -120 89 -178 16 -24 343 -357 726 -741 383 -384 709 -712 725
-729 l30 -31 -694 -692 c-381 -381 -709 -713 -728 -738 -20 -25 -41 -49 -46
-55 -20 -19 -58 -96 -80 -164 -18 -56 -22 -89 -21 -173 1 -56 5 -116 9 -133
10 -47 48 -137 68 -167 10 -14 18 -30 18 -36 0 -17 121 -133 173 -166 49 -31
121 -63 160 -72 9 -2 27 -7 40 -10 12 -3 62 -7 111 -9 135 -4 252 32 365 112
39 28 5125 5104 5414 5403 108 112 152 182 180 290 17 68 21 210 7 265 -6 22
-13 49 -15 60 -10 43 -76 162 -115 208 -88 101 -235 186 -352 203 -86 13 -218
5 -287 -17 -49 -16 -129 -57 -171 -87 -37 -27 -533 -518 -1801 -1785 -428
-429 -780 -773 -780 -765 -1 7 -3 564 -4 1238 -1 674 -6 1236 -9 1250 -4 14
-9 35 -12 48 -2 13 -19 53 -36 90 -90 194 -269 319 -483 338 -33 3 -65 7 -72
9 -6 2 -13 2 -15 0z"/>
<path d="M4569 4141 c-65 -64 -104 -122 -92 -135 9 -9 9 -107 0 -113 -4 -2 -4
-9 -1 -15 10 -16 11 -219 1 -225 -4 -2 -4 -10 0 -16 10 -16 10 -128 0 -149 -4
-10 -4 -18 0 -18 4 0 7 -35 5 -77 -3 -101 -3 -89 0 -155 2 -32 1 -66 -3 -75
-3 -10 -3 -32 1 -50 5 -19 3 -36 -3 -42 -7 -7 -7 -11 -1 -11 10 0 10 -79 0
-106 -3 -8 -2 -14 2 -14 9 0 6 -105 -3 -120 -3 -5 -3 -10 2 -10 4 0 7 -24 7
-52 -1 -29 2 -63 7 -76 12 -30 2239 -2258 2299 -2299 92 -63 128 -79 245 -109
11 -3 54 -7 94 -8 191 -8 375 80 496 239 22 29 76 129 81 150 2 6 5 20 8 33
39 154 37 218 -10 363 -14 42 -43 105 -66 139 -29 45 -466 488 -1507 1530
-806 806 -1473 1470 -1481 1476 -12 9 -28 -2 -81 -55z"/>
<path d="M3573 3147 c-547 -547 -593 -596 -594 -628 0 -19 -1 -459 -1 -979 0
-854 2 -988 16 -1055 16 -70 73 -205 87 -205 5 0 9 -6 9 -14 0 -16 137 -156
152 -156 5 0 22 -8 36 -18 35 -24 104 -51 172 -68 71 -17 231 -11 289 11 75
28 167 73 180 89 8 9 17 16 22 16 12 0 77 65 115 115 58 75 98 176 110 281 7
60 11 3204 4 3204 -3 0 -272 -267 -597 -593z"/>
</g>
</svg>
